<?xml version="1.0" encoding="utf-8"?>
<!-- Generator: Adobe Illustrator 27.5.0, SVG Export Plug-In . SVG Version: 6.00 Build 0)  -->
<svg version="1.1" xmlns="http://www.w3.org/2000/svg" xmlns:xlink="http://www.w3.org/1999/xlink" x="0px" y="0px"
	 viewBox="0 0 1200 1200" xml:space="preserve">
	<g id="Objects">
		<path style="fill:#BA2525;" d="M782.174,373.285c-9.141,1.438-18.41,3.522-27.35,5.905c-3.935,1.251-9.433,2.942-13.365,4.264
			c-31.95,11.439-61.202,30.303-84.947,54.31c-17.774,17.702-32.917,38.489-45.221,60.671c-4.26-17.183-9.775-34.092-16.746-50.61
			c-31.867-76.477-94.357-131.378-178.915-139.747c-54.58-5.962-103.949,9.142-145.627,45.262
			c-71.737,63.825-99.5,168.617-100.366,261.549c-0.259,67.244,12.743,134.84,39.908,196.497
			c65.782,151.48,206.69,257.542,354.071,321.978c27.721,11.178,47.342-26.062,22.758-42.655
			c-47.553-30.396-93.239-62.79-134.746-98.949c-78.448-68.194-143.364-150.978-171.022-251.255
			c-14.447-52.479-18.549-108.08-11.94-162.125c6.344-47.524,20.601-96.454,49.984-134.541c9.191-11.668,18.661-20.946,30.572-28.48
			c2.369-1.707,5.138-2.891,7.588-4.445c2.649-1.088,5.157-2.611,7.876-3.474c13.24-5.345,28.668-6.975,43.146-6.086
			c26.664,1.122,51.734,10.019,72.734,26.714c38.515,31.239,59.668,77.476,74.774,124.976c7.891,25.405,13.59,52.061,17.321,78.745
			c-1.69,10.739,4.299,21.565,14.869,25.562c12.111,4.579,25.641-1.526,30.22-13.637c0,0,2.829-7.482,2.829-7.483
			c24.952-64.875,68.095-134.187,134.691-160.718c12.839-5.085,26.281-7.852,39.918-9.299c2.829-0.133,6.456-0.386,9.314-0.555
			c0,0,3.436,0.026,3.436,0.026c25.357-0.643,50.948,6.876,71.654,21.398c37.965,26.542,55.752,73.776,55.614,119.581
			c-0.088,3.434,0.017,7.726-0.164,11.131c-0.177,2.386-0.491,8.931-0.661,11.198c-0.291,2.465-0.965,8.689-1.247,11.243
			c-0.283,2.215-0.765,5.267-1.165,7.507c-0.574,4.373-1.87,10.67-2.806,15.04c-31.562,137.626-150.079,253.96-265.753,329.4
			c-9.785,6.249-13.921,18.86-9.224,29.908c5.24,12.334,19.487,18.084,31.821,12.844c45.62-19.383,88.997-44.487,129.427-74.139
			c40.707-29.985,78.146-64.45,110.619-103.598c39.477-47.681,72.197-103.143,89.553-163.021c1.739-5.46,3.77-14.143,5.196-19.748
			c0.694-2.914,1.584-7.069,2.122-10.059c1.237-5.772,2.665-14.467,3.437-20.379c0,0,0.742-5.131,0.742-5.131
			s0.513-5.186,0.514-5.186c0.235-3.822,1.363-11.821,1.279-15.61c0.106-2.605,0.316-7.88,0.409-10.483
			C1033.824,467.561,926.303,351.477,782.174,373.285z"/>
	</g>
</svg>
